<?xml version="1.0" standalone="no"?>
<!DOCTYPE svg PUBLIC "-//W3C//DTD SVG 20010904//EN"
 "http://www.w3.org/TR/2001/REC-SVG-20010904/DTD/svg10.dtd">
<svg version="1.0" xmlns="http://www.w3.org/2000/svg"
 width="155.000000pt" height="155.000000pt" viewBox="0 0 155.000000 155.000000"
 preserveAspectRatio="xMidYMid meet">
<metadata>
Created by potrace 1.11, written by Peter Selinger 2001-2013
</metadata>
<g transform="translate(0.000000,155.000000) scale(0.100000,-0.100000)"
fill="#000000" stroke="none">
<path d="M592 1493 c-77 -26 -87 -43 -33 -54 18 -4 38 -12 44 -18 9 -9 18
-196 10 -213 -2 -4 -22 2 -46 12 -51 24 -153 26 -202 6 -90 -38 -155 -153
-155 -275 0 -129 52 -226 145 -270 l45 -21 0 -286 0 -286 -40 -15 c-22 -9 -40
-22 -40 -30 0 -18 226 -19 233 0 2 7 -13 18 -37 27 l-41 16 -3 79 -3 80 54 41
53 42 64 -90 c36 -49 75 -102 87 -116 19 -22 20 -29 10 -40 -7 -7 -27 -14 -44
-15 -23 -1 -29 -6 -25 -19 2 -10 14 -18 26 -19 70 -2 221 3 228 7 14 9 -10 31
-41 37 -37 8 -60 31 -146 152 -38 53 -79 109 -91 123 l-21 26 61 51 c82 70
165 125 185 125 10 0 18 7 18 15 0 12 -20 15 -119 15 -110 0 -118 -1 -118 -19
0 -14 6 -19 24 -17 12 2 32 -3 42 -11 22 -17 32 -6 -148 -154 l-98 -80 0 180
0 180 38 7 c20 3 52 15 70 25 33 19 34 19 39 1 4 -16 11 -17 53 -12 27 4 58 6
69 5 32 -2 33 22 1 33 -57 20 -58 24 -58 412 0 410 0 390 -9 389 -5 0 -41 -12
-81 -26z m-60 -303 c20 -6 47 -19 59 -29 22 -18 23 -24 23 -201 1 -141 -2
-187 -13 -202 -16 -24 -70 -48 -106 -48 -25 0 -25 1 -25 80 0 44 -4 80 -9 80
-11 0 -98 -36 -124 -51 -11 -6 -20 -9 -21 -7 -28 38 -37 179 -16 243 36 110
128 163 232 135z m-148 -406 c9 -8 16 -25 16 -36 0 -19 -2 -19 -22 -6 -12 8
-28 24 -36 36 -13 20 -13 22 6 22 11 0 28 -7 36 -16z"/>
<path d="M1019 1235 c-3 -2 -14 -6 -25 -8 -32 -4 -90 -45 -118 -82 -87 -113
-77 -313 21 -410 58 -59 114 -79 201 -73 140 10 229 111 240 273 6 100 -21
175 -86 235 -27 25 -67 51 -89 58 -40 12 -135 17 -144 7z m173 -85 c50 -57 72
-130 66 -225 -9 -130 -71 -213 -167 -223 -120 -11 -203 103 -196 269 4 77 24
132 68 178 43 45 62 51 131 48 56 -3 62 -6 98 -47z"/>
<path d="M1077 882 c-9 -2 -24 -16 -31 -30 -12 -23 -12 -33 -1 -58 15 -36 43
-47 76 -30 68 34 31 134 -44 118z"/>
<path d="M1060 564 c-36 -14 -67 -28 -70 -30 -7 -8 23 -24 46 -24 12 0 25 -7
28 -16 3 -9 6 -102 6 -209 0 -200 -2 -208 -44 -216 -10 -2 -22 -13 -26 -24 -7
-19 -4 -20 102 -19 60 1 112 4 115 8 10 9 -14 29 -39 33 -12 2 -26 9 -30 16
-4 6 -8 123 -8 260 0 136 -3 247 -7 246 -5 0 -37 -12 -73 -25z"/>
</g>
</svg>
