<?xml version="1.0" standalone="no"?>
<!DOCTYPE svg PUBLIC "-//W3C//DTD SVG 20010904//EN"
 "http://www.w3.org/TR/2001/REC-SVG-20010904/DTD/svg10.dtd">
<svg version="1.0" xmlns="http://www.w3.org/2000/svg"
 width="128.000000pt" height="128.000000pt" viewBox="0 0 128.000000 128.000000"
 preserveAspectRatio="xMidYMid meet">
<metadata>
Created by potrace 1.11, written by Peter Selinger 2001-2013
</metadata>
<g transform="translate(0.000000,128.000000) scale(0.100000,-0.100000)"
fill="#000000" stroke="none">
<path d="M5 837 c-2 -7 -3 -79 -2 -162 l2 -150 92 1 c70 1 99 6 124 20 47 28
71 66 76 121 7 63 -14 112 -62 149 -34 26 -46 28 -132 31 -67 2 -95 -1 -98
-10z m161 -81 c22 -7 44 -44 44 -76 0 -25 -40 -68 -65 -71 -55 -4 -55 -4 -53
80 1 78 1 78 27 76 15 -1 36 -5 47 -9z"/>
<path d="M354 842 c-6 -4 -10 -73 -9 -162 l0 -155 45 0 45 0 0 55 c0 49 2 55
20 52 28 -4 65 -48 65 -78 0 -13 1 -24 3 -25 27 -7 87 -8 91 -1 9 15 -15 96
-39 128 l-24 31 21 20 c20 21 52 119 43 133 -8 12 -90 5 -91 -8 -1 -7 -2 -18
-3 -26 -2 -21 -42 -63 -67 -70 -19 -6 -21 -2 -20 51 l1 57 -36 2 c-20 1 -40
-1 -45 -4z"/>
<path d="M660 686 l0 -163 88 2 c48 1 98 7 112 13 66 27 104 94 95 169 -12 98
-74 139 -210 141 l-85 1 0 -163z m182 55 c20 -19 29 -69 16 -94 -12 -23 -64
-46 -89 -40 -16 5 -19 16 -19 78 0 50 4 75 13 78 19 8 60 -4 79 -22z"/>
<path d="M1002 686 l3 -161 43 -2 42 -3 0 59 c0 57 1 58 25 54 30 -6 44 -22
60 -70 12 -35 16 -38 54 -40 40 -2 41 -1 41 30 0 34 -31 110 -49 121 -7 5 -2
21 15 46 15 22 29 59 31 83 l5 44 -43 -1 c-41 -1 -44 -3 -52 -38 -9 -39 -29
-62 -64 -72 -22 -7 -23 -5 -23 52 l0 60 -45 -1 -45 0 2 -161z"/>
<path d="M336 467 c-14 -10 -16 -16 -7 -22 15 -9 35 8 30 24 -3 8 -10 7 -23
-2z"/>
<path d="M420 462 c0 -14 6 -22 16 -22 14 0 15 3 3 18 -7 9 -15 19 -16 21 -2
2 -3 -5 -3 -17z"/>
<path d="M466 472 c-2 -4 -1 -14 4 -22 7 -11 9 -9 7 8 -1 24 -3 26 -11 14z"/>
<path d="M527 466 c-12 -9 -14 -16 -8 -21 6 -3 11 0 11 7 0 9 3 9 10 -2 8 -12
10 -11 10 8 0 26 0 26 -23 8z"/>
<path d="M613 460 c1 -11 7 -20 14 -20 11 0 11 5 3 20 -6 11 -13 20 -15 20 -2
0 -3 -9 -2 -20z"/>
<path d="M374 459 c-3 -6 -3 -13 0 -16 3 -4 6 0 6 8 0 12 2 12 9 0 5 -8 11 -9
15 -3 3 5 -1 12 -9 16 -8 3 -17 1 -21 -5z"/>
<path d="M571 453 c0 -12 2 -14 6 -4 5 11 7 11 15 0 8 -12 9 -12 6 0 -6 22
-28 25 -27 4z"/>
<path d="M655 461 c-3 -5 -1 -12 5 -16 5 -3 10 1 10 9 0 18 -6 21 -15 7z"/>
<path d="M750 455 c0 -8 4 -15 8 -15 5 0 9 7 9 15 0 8 -4 15 -9 15 -4 0 -8 -7
-8 -15z"/>
<path d="M781 463 c-1 -18 19 -27 32 -13 9 10 8 12 -5 7 -9 -3 -19 -1 -22 6
-3 9 -5 9 -5 0z"/>
<path d="M837 463 c-4 -3 -7 -11 -7 -17 0 -6 5 -4 10 4 7 11 10 11 10 2 0 -7
5 -10 10 -7 6 4 8 11 5 16 -7 11 -19 12 -28 2z"/>
<path d="M881 454 c0 -11 3 -14 6 -6 3 7 2 16 -1 19 -3 4 -6 -2 -5 -13z"/>
<path d="M916 463 c-11 -11 -6 -23 9 -23 8 0 15 4 15 9 0 13 -16 22 -24 14z"/>
<path d="M715 450 c3 -5 8 -10 11 -10 2 0 4 5 4 10 0 6 -5 10 -11 10 -5 0 -7
-4 -4 -10z"/>
</g>
</svg>
